<svg xmlns="http://www.w3.org/2000/svg" xmlns:xlink="http://www.w3.org/1999/xlink" width="129.824" height="120.583" viewBox="0 0 129.824 120.583">
  <defs>
    <clipPath id="clip-path">
      <path id="Path_2" data-name="Path 2" d="M141,105.34h69.08v48.772H141Zm0,0" transform="translate(-141 -105.34)" fill="#92220c"/>
    </clipPath>
    <clipPath id="clip-path-2">
      <path id="Path_4" data-name="Path 4" d="M132.215,160h81.893v42.963H132.215Zm0,0" transform="translate(-132.215 -160)" fill="#cd4b20"/>
    </clipPath>
  </defs>
  <g id="logo-self-stockage" transform="translate(-99.957 -105.34)">
    <g id="Group_1" data-name="Group 1" transform="translate(130.443 105.34)" clip-path="url(#clip-path)">
      <path id="Path_1" data-name="Path 1" d="M209.641,140.539l-1.628,1.631a1.159,1.159,0,0,1-1.631,0l-29.741-29.738a1.151,1.151,0,0,0-1.628,0L145.273,142.17a1.159,1.159,0,0,1-1.631,0l-1.631-1.631a1.151,1.151,0,0,1,0-1.628l11.859-11.859v-8.4a.854.854,0,0,1,.853-.853h3.734a.854.854,0,0,1,.853.853v2.96l15.7-15.7a1.159,1.159,0,0,1,1.631,0l1.628,1.631,1.631,1.628,29.741,29.738A1.153,1.153,0,0,1,209.641,140.539Zm-20.1,13.594a15.436,15.436,0,0,1,9.363-2.765,17.269,17.269,0,0,1,4.669.641v-8.287a3.191,3.191,0,0,0-.815-1.967l-25.94-25.934a1.151,1.151,0,0,0-1.628,0l-25.937,25.934a3.2,3.2,0,0,0-.815,1.967v3.334a22.019,22.019,0,0,1,14.032-2.553v-1.367a.75.75,0,0,1,.749-.749h10.5a.749.749,0,0,1,.749.749v7.271c.339.325.67.659.989,1.01a16.035,16.035,0,0,1,2.095-.325v-7.959a.75.75,0,0,1,.749-.749h10.495a.75.75,0,0,1,.749.749Zm0,0" transform="translate(-141.174 -105.402)" fill="#92220c"/>
    </g>
    <g id="Group_2" data-name="Group 2" transform="translate(123.918 145.941)" clip-path="url(#clip-path-2)">
      <path id="Path_3" data-name="Path 3" d="M136.738,181.4c-.012-.25-.023-.5-.023-.749a19.833,19.833,0,0,1,35.329-12.378,14.065,14.065,0,0,1,14.284,3.427,15.038,15.038,0,0,1,24.991,10.916,12.184,12.184,0,0,1-8.919,20.5H144.354a12.191,12.191,0,0,1-7.617-21.715Zm0,0" transform="translate(-132.2 -160.211)" fill="#cd4b20"/>
    </g>
    <g id="Group_5" data-name="Group 5" transform="translate(99.957 198.174)">
      <g id="Group_4" data-name="Group 4" transform="translate(0)">
        <g id="Group_3" data-name="Group 3" transform="translate(0 0)">
          <path id="Path_5" data-name="Path 5" d="M7.2-14.828c-2.452-.757-3.032-1.227-3.032-1.961,0-1.024,1.137-1.471,2.385-1.448,1.137.02,2.408.557,2.608,1.538l2.629-.981c-.447-2.228-2.875-3.5-5.26-3.5-4.01,0-5.5,2.452-5.5,4.5,0,2.3,1.468,3.656,5.057,4.724,2.539.76,3.3,1.161,3.3,2.095,0,.96-.981,1.671-2.785,1.671-1.628,0-2.989-.734-3.276-1.915L.6-9.057c.444,2.252,3.209,3.876,6.262,3.876,3.876,0,5.681-2.205,5.681-4.79C12.544-12.867,10.272-13.894,7.2-14.828Zm0,0" transform="translate(-0.602 21.18)" fill="#cd4b20"/>
        </g>
      </g>
    </g>
    <g id="Group_8" data-name="Group 8" transform="translate(112.235 203.008)">
      <g id="Group_7" data-name="Group 7" transform="translate(0 0)">
        <g id="Group_6" data-name="Group 6" transform="translate(0 0)">
          <path id="Path_6" data-name="Path 6" d="M10.505-8.074a5.476,5.476,0,0,0,.09-1.071c0-3.1-1.895-5.527-4.97-5.527A5.306,5.306,0,0,0,.3-9.144,5.412,5.412,0,0,0,5.738-3.6a5.041,5.041,0,0,0,4.434-2.472L7.72-7.273a2.326,2.326,0,0,1-1.982.958A2.388,2.388,0,0,1,3.353-8.074Zm-4.88-3.9a2.1,2.1,0,0,1,2.162,1.828H3.33A2.252,2.252,0,0,1,5.625-11.973Zm0,0" transform="translate(-0.301 14.672)" fill="#cd4b20"/>
        </g>
      </g>
    </g>
    <g id="Group_11" data-name="Group 11" transform="translate(123.533 197.193)">
      <g id="Group_10" data-name="Group 10" transform="translate(0)">
        <g id="Group_9" data-name="Group 9" transform="translate(0 0)">
          <path id="Path_7" data-name="Path 7" d="M1.051-22.5V-5.787H4.013V-22.5Zm0,0" transform="translate(-1.051 22.5)" fill="#cd4b20"/>
        </g>
      </g>
    </g>
    <g id="Group_14" data-name="Group 14" transform="translate(127.388 198.174)">
      <g id="Group_13" data-name="Group 13" transform="translate(0)">
        <g id="Group_12" data-name="Group 12" transform="translate(0 0)">
          <path id="Path_8" data-name="Path 8" d="M5.982-18.284a1.9,1.9,0,0,1,1.2.514l1.581-2.072A4.689,4.689,0,0,0,5.582-21.18c-2.475,0-3.833,1.491-3.833,4.991H.3v2.832H1.749v7.933H4.711v-7.933H7.076v-2.832H4.711v-.29C4.711-17.637,4.981-18.327,5.982-18.284Zm0,0" transform="translate(-0.301 21.18)" fill="#cd4b20"/>
        </g>
      </g>
    </g>
    <g id="Group_17" data-name="Group 17" transform="translate(135.968 205.863)">
      <g id="Group_16" data-name="Group 16" transform="translate(0 0)">
        <g id="Group_15" data-name="Group 15" transform="translate(0 0)">
          <path id="Path_9" data-name="Path 9" d="M1.352-10.828v2.449H8.727v-2.449Zm0,0" transform="translate(-1.352 10.828)" fill="#cd4b20"/>
        </g>
      </g>
    </g>
    <g id="Group_20" data-name="Group 20" transform="translate(144.569 198.174)">
      <g id="Group_19" data-name="Group 19" transform="translate(0)">
        <g id="Group_18" data-name="Group 18" transform="translate(0 0)">
          <path id="Path_10" data-name="Path 10" d="M7.2-14.828c-2.452-.757-3.032-1.227-3.032-1.961,0-1.024,1.137-1.471,2.385-1.448,1.137.02,2.408.557,2.608,1.538l2.629-.981c-.447-2.228-2.875-3.5-5.26-3.5-4.01,0-5.5,2.452-5.5,4.5,0,2.3,1.468,3.656,5.057,4.724,2.539.76,3.3,1.161,3.3,2.095,0,.96-.981,1.671-2.785,1.671-1.628,0-2.989-.734-3.276-1.915L.6-9.057c.444,2.252,3.209,3.876,6.262,3.876,3.876,0,5.681-2.205,5.681-4.79C12.544-12.867,10.272-13.894,7.2-14.828Zm0,0" transform="translate(-0.602 21.18)" fill="#cd4b20"/>
        </g>
      </g>
    </g>
    <g id="Group_23" data-name="Group 23" transform="translate(156.734 200.089)">
      <g id="Group_22" data-name="Group 22" transform="translate(0 0)">
        <g id="Group_21" data-name="Group 21" transform="translate(0 0)">
          <path id="Path_11" data-name="Path 11" d="M7.013-7.95A2.065,2.065,0,0,1,5.766-7.5c-.937,0-1.181-.58-1.181-1.538v-3.633h2.5v-2.852h-2.5V-18.6l-2.965.67v2.405H.148v2.852H1.62v4.59c0,2.228,1.271,3.409,3.543,3.409a4.138,4.138,0,0,0,2.832-1Zm0,0" transform="translate(-0.148 18.602)" fill="#cd4b20"/>
        </g>
      </g>
    </g>
    <g id="Group_26" data-name="Group 26" transform="translate(164.913 203.008)">
      <g id="Group_25" data-name="Group 25" transform="translate(0 0)">
        <g id="Group_24" data-name="Group 24" transform="translate(0 0)">
          <path id="Path_12" data-name="Path 12" d="M5.887-14.672A5.4,5.4,0,0,0,.449-9.144,5.413,5.413,0,0,0,5.887-3.6a5.412,5.412,0,0,0,5.437-5.548A5.4,5.4,0,0,0,5.887-14.672Zm0,8.356A2.55,2.55,0,0,1,3.348-9.144a2.55,2.55,0,0,1,2.539-2.829A2.552,2.552,0,0,1,8.428-9.144,2.552,2.552,0,0,1,5.887-6.315Zm0,0" transform="translate(-0.449 14.672)" fill="#cd4b20"/>
        </g>
      </g>
    </g>
    <g id="Group_29" data-name="Group 29" transform="translate(176.234 203.008)">
      <g id="Group_28" data-name="Group 28" transform="translate(0 0)">
        <g id="Group_27" data-name="Group 27" transform="translate(0 0)">
          <path id="Path_13" data-name="Path 13" d="M5.738-6.315A2.535,2.535,0,0,1,3.22-9.144a2.535,2.535,0,0,1,2.519-2.829,2.355,2.355,0,0,1,1.982.958L10.172-12.2a5.044,5.044,0,0,0-4.434-2.475A5.4,5.4,0,0,0,.3-9.144,5.412,5.412,0,0,0,5.738-3.6a5.041,5.041,0,0,0,4.434-2.472L7.72-7.273A2.3,2.3,0,0,1,5.738-6.315Zm0,0" transform="translate(-0.301 14.672)" fill="#cd4b20"/>
        </g>
      </g>
    </g>
    <g id="Group_32" data-name="Group 32" transform="translate(186.772 198.307)">
      <g id="Group_31" data-name="Group 31" transform="translate(0 0)">
        <g id="Group_30" data-name="Group 30" transform="translate(0 0)">
          <path id="Path_14" data-name="Path 14" d="M7.7-5.4h3.433L6.693-11.529l4.28-4.613H7.183l-3.319,3.61V-21H.9V-5.4H3.864V-8.477l.914-.981Zm0,0" transform="translate(-0.898 21)" fill="#cd4b20"/>
        </g>
      </g>
    </g>
    <g id="Group_35" data-name="Group 35" transform="translate(197.114 203.008)">
      <g id="Group_34" data-name="Group 34" transform="translate(0 0)">
        <g id="Group_33" data-name="Group 33" transform="translate(0 0)">
          <path id="Path_15" data-name="Path 15" d="M5.492-14.672c-2.672,0-4.257,1.761-4.457,3.166l2.475.534A1.673,1.673,0,0,1,5.291-12.24c1.047-.046,1.738.624,1.581,1.268-.133.6-.891.6-2.7,1C1.905-9.478.3-8.654.3-6.315.391-4.688,1.548-3.6,3.643-3.6a4.611,4.611,0,0,0,3.3-1.181v1H9.882v-6.708C9.882-13.6,7.833-14.672,5.492-14.672ZM6.94-8.164A2.42,2.42,0,0,1,4.868-5.892C4.2-5.779,3.53-5.912,3.353-6.4c-.2-.537.11-1.248,1.2-1.538C5.962-8.3,6.94-8.5,6.94-8.5Zm0,0" transform="translate(-0.301 14.672)" fill="#cd4b20"/>
        </g>
      </g>
    </g>
    <g id="Group_38" data-name="Group 38" transform="translate(207.587 203.008)">
      <g id="Group_37" data-name="Group 37" transform="translate(0 0)">
        <g id="Group_36" data-name="Group 36" transform="translate(0 0)">
          <path id="Path_16" data-name="Path 16" d="M8.344-14.515v.937a4.179,4.179,0,0,0-2.852-1.094A5.2,5.2,0,0,0,.3-9.144C.3-6.046,2.4-3.6,5.492-3.6A4.22,4.22,0,0,0,8.344-4.688c-.02,1.895-1.024,3.1-2.762,3.1A3.247,3.247,0,0,1,2.953-2.77L.724-1.212A6.252,6.252,0,0,0,5.648,1.263c3.943,0,5.661-2.875,5.661-6.6v-9.18Zm-2.539,8.2A2.552,2.552,0,0,1,3.263-9.144a2.552,2.552,0,0,1,2.542-2.829A2.55,2.55,0,0,1,8.344-9.144,2.55,2.55,0,0,1,5.805-6.315Zm0,0" transform="translate(-0.301 14.672)" fill="#cd4b20"/>
        </g>
      </g>
    </g>
    <g id="Group_41" data-name="Group 41" transform="translate(219.487 203.008)">
      <g id="Group_40" data-name="Group 40" transform="translate(0 0)">
        <g id="Group_39" data-name="Group 39" transform="translate(0 0)">
          <path id="Path_17" data-name="Path 17" d="M10.505-8.074a5.476,5.476,0,0,0,.09-1.071c0-3.1-1.895-5.527-4.97-5.527A5.306,5.306,0,0,0,.3-9.144,5.412,5.412,0,0,0,5.738-3.6a5.041,5.041,0,0,0,4.434-2.472L7.72-7.273a2.326,2.326,0,0,1-1.982.958A2.388,2.388,0,0,1,3.353-8.074Zm-4.88-3.9a2.1,2.1,0,0,1,2.162,1.828H3.33A2.252,2.252,0,0,1,5.625-11.973Zm0,0" transform="translate(-0.301 14.672)" fill="#cd4b20"/>
        </g>
      </g>
    </g>
    <g id="Group_44" data-name="Group 44" transform="translate(143.168 220.584)">
      <g id="Group_43" data-name="Group 43">
        <g id="Group_42" data-name="Group 42" transform="translate(0 0)">
          <path id="Path_18" data-name="Path 18" d="M2.476-7.047a1.87,1.87,0,0,1,1.335.441,1.911,1.911,0,0,1,.557,1.172H3.312a.937.937,0,0,0-.267-.615.816.816,0,0,0-.615-.232.831.831,0,0,0-.522.162.531.531,0,0,0-.2.453.6.6,0,0,0,.244.511A2.315,2.315,0,0,0,2.8-4.83a2.6,2.6,0,0,1,1.242.592,1.378,1.378,0,0,1,.395,1.01,1.3,1.3,0,0,1-.557,1.114,2.165,2.165,0,0,1-1.335.406,2.476,2.476,0,0,1-1.5-.406A1.616,1.616,0,0,1,.422-3.333H1.466a.991.991,0,0,0,.371.638,1.1,1.1,0,0,0,.7.221.992.992,0,0,0,.592-.174.569.569,0,0,0,.244-.476.66.66,0,0,0-.232-.522,2.034,2.034,0,0,0-.789-.337,3.383,3.383,0,0,1-1.3-.545,1.24,1.24,0,0,1-.418-1.01,1.3,1.3,0,0,1,.534-1.091A2.091,2.091,0,0,1,2.476-7.047Zm0,0" transform="translate(-0.422 7.047)" fill="#cd4b20"/>
        </g>
      </g>
    </g>
    <g id="Group_47" data-name="Group 47" transform="translate(148.643 220.584)">
      <g id="Group_46" data-name="Group 46" transform="translate(0)">
        <g id="Group_45" data-name="Group 45" transform="translate(0 0)">
          <path id="Path_19" data-name="Path 19" d="M3.046-7.047a2.387,2.387,0,0,1,1.845.731,2.7,2.7,0,0,1,.685,1.938,2.742,2.742,0,0,1-.685,1.95,2.4,2.4,0,0,1-1.845.72,2.43,2.43,0,0,1-1.857-.72,2.761,2.761,0,0,1-.673-1.95,2.722,2.722,0,0,1,.673-1.938A2.4,2.4,0,0,1,3.046-7.047ZM1.966-2.973a1.294,1.294,0,0,0,1.079.5,1.268,1.268,0,0,0,1.068-.5,2.287,2.287,0,0,0,.383-1.4A2.245,2.245,0,0,0,4.114-5.77a1.262,1.262,0,0,0-1.068-.511,1.273,1.273,0,0,0-1.079.511,2.264,2.264,0,0,0-.383,1.4A2.233,2.233,0,0,0,1.966-2.973Zm0,0" transform="translate(-0.516 7.047)" fill="#cd4b20"/>
        </g>
      </g>
    </g>
    <g id="Group_50" data-name="Group 50" transform="translate(155.493 220.688)">
      <g id="Group_49" data-name="Group 49">
        <g id="Group_48" data-name="Group 48" transform="translate(0 0)">
          <path id="Path_20" data-name="Path 20" d="M4.593-2.635v.859H.891v-5.13H1.912v4.271Zm0,0" transform="translate(-0.891 6.906)" fill="#cd4b20"/>
        </g>
      </g>
    </g>
    <g id="Group_53" data-name="Group 53" transform="translate(160.8 220.688)">
      <g id="Group_52" data-name="Group 52">
        <g id="Group_51" data-name="Group 51" transform="translate(0 0)">
          <path id="Path_21" data-name="Path 21" d="M5.022-6.906v3.041c0,.25-.006.45-.012.6a1.608,1.608,0,0,1-.569,1.149,2.264,2.264,0,0,1-1.52.441,2.327,2.327,0,0,1-1.544-.441A1.652,1.652,0,0,1,.808-3.262C.8-3.416.8-3.616.8-3.865V-6.906H1.818v3.145a3.606,3.606,0,0,0,.012.371,1.038,1.038,0,0,0,.3.708,1.158,1.158,0,0,0,.789.244,1.082,1.082,0,0,0,.754-.244,1.021,1.021,0,0,0,.313-.708,2.061,2.061,0,0,0,.023-.371V-6.906Zm0,0" transform="translate(-0.797 6.906)" fill="#cd4b20"/>
        </g>
      </g>
    </g>
    <g id="Group_56" data-name="Group 56" transform="translate(166.485 220.688)">
      <g id="Group_55" data-name="Group 55">
        <g id="Group_54" data-name="Group 54" transform="translate(0 0)">
          <path id="Path_22" data-name="Path 22" d="M4.738-6.094H3v4.317H1.964V-6.094H.234v-.812h4.5Zm0,0" transform="translate(-0.234 6.906)" fill="#cd4b20"/>
        </g>
      </g>
    </g>
    <g id="Group_59" data-name="Group 59" transform="translate(172.49 220.688)">
      <g id="Group_58" data-name="Group 58">
        <g id="Group_57" data-name="Group 57" transform="translate(0 0)">
          <path id="Path_23" data-name="Path 23" d="M1.912-1.776H.891v-5.13H1.912Zm0,0" transform="translate(-0.891 6.906)" fill="#cd4b20"/>
        </g>
      </g>
    </g>
    <g id="Group_62" data-name="Group 62" transform="translate(175.271 220.584)">
      <g id="Group_61" data-name="Group 61">
        <g id="Group_60" data-name="Group 60" transform="translate(0 0)">
          <path id="Path_24" data-name="Path 24" d="M3.046-7.047a2.387,2.387,0,0,1,1.845.731,2.7,2.7,0,0,1,.685,1.938,2.742,2.742,0,0,1-.685,1.95,2.4,2.4,0,0,1-1.845.72,2.43,2.43,0,0,1-1.857-.72,2.761,2.761,0,0,1-.673-1.95,2.722,2.722,0,0,1,.673-1.938A2.4,2.4,0,0,1,3.046-7.047ZM1.966-2.973a1.294,1.294,0,0,0,1.079.5,1.268,1.268,0,0,0,1.068-.5,2.287,2.287,0,0,0,.383-1.4A2.245,2.245,0,0,0,4.114-5.77a1.262,1.262,0,0,0-1.068-.511,1.273,1.273,0,0,0-1.079.511,2.264,2.264,0,0,0-.383,1.4A2.233,2.233,0,0,0,1.966-2.973Zm0,0" transform="translate(-0.516 7.047)" fill="#cd4b20"/>
        </g>
      </g>
    </g>
    <g id="Group_65" data-name="Group 65" transform="translate(182.121 220.688)">
      <g id="Group_64" data-name="Group 64">
        <g id="Group_63" data-name="Group 63" transform="translate(0 0)">
          <path id="Path_25" data-name="Path 25" d="M5.394-1.776h-1.4L1.877-5.664q.035.7.035,1.567v2.321H.891v-5.13H2.249L4.407-2.937c-.032-.456-.046-.992-.046-1.613V-6.906H5.382Zm0,0" transform="translate(-0.891 6.906)" fill="#cd4b20"/>
        </g>
      </g>
    </g>
  </g>
</svg>
