<svg id="loupe" xmlns="http://www.w3.org/2000/svg" width="16.985" height="16.985" viewBox="0 0 16.985 16.985">
  <g id="Group_2" data-name="Group 2" transform="translate(9.952 6.303)">
    <g id="Group_1" data-name="Group 1">
      <path id="Path_5" data-name="Path 5" d="M300.332,190a.332.332,0,1,0,.332.332A.332.332,0,0,0,300.332,190Z" transform="translate(-300 -190)" fill="#858585"/>
    </g>
  </g>
  <g id="Group_4" data-name="Group 4" transform="translate(0 0)">
    <g id="Group_3" data-name="Group 3">
      <path id="Path_6" data-name="Path 6" d="M16.6,14.72l-4.428-4.428a6.575,6.575,0,0,0,1.1-3.657A6.635,6.635,0,1,0,6.635,13.27a6.576,6.576,0,0,0,3.657-1.1l1.224,1.224h0l3.2,3.2A1.327,1.327,0,1,0,16.6,14.72Zm-6.46-3.251h0a5.977,5.977,0,1,1,1.333-1.333A6,6,0,0,1,10.136,11.469Zm.7.3a6.657,6.657,0,0,0,.938-.938l.941.941a8.052,8.052,0,0,1-.938.938Zm5.3,4.357a.663.663,0,0,1-.938,0l-2.946-2.946a8.717,8.717,0,0,0,.938-.938l2.946,2.946a.663.663,0,0,1,0,.938Z" fill="#858585"/>
    </g>
  </g>
  <g id="Group_6" data-name="Group 6" transform="translate(1.327 1.327)">
    <g id="Group_5" data-name="Group 5">
      <path id="Path_7" data-name="Path 7" d="M45.308,40a5.308,5.308,0,1,0,5.308,5.308A5.314,5.314,0,0,0,45.308,40Zm0,9.952a4.644,4.644,0,1,1,4.644-4.644A4.65,4.65,0,0,1,45.308,49.952Z" transform="translate(-40 -40)" fill="#858585"/>
    </g>
  </g>
  <g id="Group_8" data-name="Group 8" transform="translate(6.303 2.654)">
    <g id="Group_7" data-name="Group 7">
      <path id="Path_8" data-name="Path 8" d="M194.049,82.557A3.987,3.987,0,0,0,190.332,80a.332.332,0,1,0,0,.663,3.34,3.34,0,0,1,3.1,2.131.332.332,0,1,0,.619-.238Z" transform="translate(-190 -80)" fill="#858585"/>
    </g>
  </g>
</svg>
