<svg id="location_1_" data-name="location(1)" xmlns="http://www.w3.org/2000/svg" width="12.44" height="16.985" viewBox="0 0 12.44 16.985">
  <path id="Path_2" data-name="Path 2" d="M74.72,0a6.22,6.22,0,0,0-5.1,9.777l4.9,7.1a.249.249,0,0,0,.41,0l4.9-7.1A6.22,6.22,0,0,0,74.72,0Zm4.693,9.494L74.72,16.3,70.026,9.493a5.723,5.723,0,1,1,9.388,0Z" transform="translate(-68.5)" fill="#858585"/>
  <path id="Path_3" data-name="Path 3" d="M164.969,93.234a3.234,3.234,0,1,0-3.234,3.234A3.238,3.238,0,0,0,164.969,93.234Zm-5.971,0a2.737,2.737,0,1,1,2.737,2.737A2.74,2.74,0,0,1,159,93.234Z" transform="translate(-155.514 -87.014)" fill="#858585"/>
  <path id="Path_4" data-name="Path 4" d="M103.725,30a5.235,5.235,0,0,0-3.307,1.18.249.249,0,0,0,.315.385,4.728,4.728,0,1,1-.669.669.249.249,0,1,0-.385-.315A5.225,5.225,0,1,0,103.725,30Z" transform="translate(-97.505 -29.005)" fill="#858585"/>
</svg>
