<svg xmlns="http://www.w3.org/2000/svg" width="13.57" height="13.569" viewBox="0 0 13.57 13.569">
  <path id="Icon_awesome-phone-alt" data-name="Icon awesome-phone-alt" d="M13.182,9.589,10.214,8.317a.636.636,0,0,0-.742.183L8.157,10.106a9.824,9.824,0,0,1-4.7-4.7L5.067,4.1a.634.634,0,0,0,.183-.742L3.978.385A.64.64,0,0,0,3.249.016L.493.653A.636.636,0,0,0,0,1.272a12.3,12.3,0,0,0,12.3,12.3.636.636,0,0,0,.62-.493l.636-2.756a.644.644,0,0,0-.371-.731Z" transform="translate(0 0)" fill="#cd4b20"/>
</svg>
